<svg xmlns="http://www.w3.org/2000/svg" viewBox="0 0 64 64" id="building"><path fill="#eff3f5" d="M16.94 2.29h30.13v57.34H16.94z"></path><path fill="#41acd8" d="M21.21 6.14H42.8v3.45H21.21zM21.21 12.47H42.8v3.45H21.21zM21.21 18.81H42.8v3.45H21.21zM21.21 25.14H42.8v3.45H21.21zM21.21 31.47H42.8v3.45H21.21zM21.21 37.8H42.8v3.45H21.21zM21.21 44.13H42.8v3.45H21.21z"></path><path fill="#3582a8" d="M21.21 6.14H42.8v1.08H21.21zM21.21 12.47H42.8v1.08H21.21zM21.21 18.81H42.8v1.08H21.21zM21.21 25.14H42.8v1.08H21.21zM21.21 31.47H42.8v1.08H21.21zM21.21 37.8H42.8v1.08H21.21zM21.21 44.13H42.8v1.08H21.21z"></path><path fill="#e5e5e5" d="M47.06 13.55H64v46.08H47.06z"></path><path fill="#41acd8" d="M47.06 17.58h13.81v2.46H47.06zM47.06 22.92h13.81v2.46H47.06zM47.06 28.25h13.81v2.46H47.06zM47.06 33.59h13.81v2.46H47.06zM47.06 38.93h13.81v2.46H47.06zM47.06 44.27h13.81v2.46H47.06zM47.06 49.61h13.81v2.46H47.06z"></path><path fill="#3582a8" d="M47.06 17.58h13.81v.68H47.06zM47.06 22.92h13.81v.68H47.06zM47.06 28.25h13.81v.68H47.06zM47.06 33.59h13.81v.68H47.06zM47.06 38.93h13.81v.68H47.06zM47.06 44.27h13.81v.68H47.06zM47.06 49.61h13.81v.68H47.06z"></path><path fill="#3582a8" d="M49.94 52.07h-2.88v-2.46h2.69zM49.54 46.73h-2.48v-2.46h2.29zM49.14 41.39h-2.08v-2.46h1.9zM48.74 36.05h-1.68v-2.46h1.5zM48.34 30.71h-1.28v-2.46h1.1zM47.95 25.38h-.89v-2.46h.7zM47.55 20.04h-.49v-2.46h.3z"></path><path fill="#c6c1c1" d="M47.36 17.58h-.3v-4.03zM47.76 22.92h-.7v-2.88h.49zM48.16 28.25h-1.1v-2.87h.89zM48.56 33.59h-1.5v-2.88h1.28zM48.96 38.93h-1.9v-2.88h1.68zM49.35 44.27h-2.29v-2.88h2.08zM49.75 49.61h-2.69v-2.88h2.48zM50.5 59.63h-3.44v-7.56h2.88z"></path><path fill="#e5e5e5" d="M16.938 59.628H-.002v-46.08h16.94z"></path><path fill="#41acd8" d="M16.94 20.032H3.13v-2.46h13.81zM16.94 25.37H3.13v-2.46h13.81zM16.94 30.718H3.13v-2.46h13.81zM16.94 36.056H3.13v-2.46h13.81zM16.94 41.392H3.13v-2.46h13.81zM16.94 46.73H3.13v-2.46h13.81zM16.94 52.07H3.13v-2.46h13.81z"></path><path fill="#3582a8" d="M16.94 18.252H3.13v-.68h13.81zM16.94 23.59H3.13v-.68h13.81zM16.94 28.938H3.13v-.68h13.81zM16.94 34.276H3.13v-.68h13.81zM16.94 39.614H3.13v-.68h13.81zM16.94 44.95H3.13v-.68h13.81zM16.94 50.29H3.13v-.68h13.81z"></path><path fill="#3582a8" d="M14.06 52.07h2.88v-2.46h-2.69zM14.46 46.73h2.48v-2.46h-2.29zM14.86 41.39h2.08v-2.46h-1.9zM15.26 36.05h1.68v-2.46h-1.5zM15.66 30.71h1.28v-2.46h-1.1zM16.05 25.38h.89v-2.46h-.7zM16.45 20.04h.49v-2.46h-.3z"></path><path fill="#c6c1c1" d="M16.64 17.58h.3v-4.03zM16.24 22.92h.7v-2.88h-.49zM15.84 28.25h1.1v-2.87h-.89zM15.44 33.59h1.5v-2.88h-1.28zM15.04 38.93h1.9v-2.88h-1.68zM14.65 44.27h2.29v-2.88h-2.08zM14.25 49.61h2.69v-2.88h-2.48zM13.5 59.63h3.44v-7.56h-2.88z"></path><path fill="#445b69" d="M23.76 50.29h16.49v9.34H23.76z"></path><path fill="#293b4e" d="M23.76 50.29h16.49v1.78H23.76z"></path><path fill="#59b5ac" d="M0 59.63h64v2.08H0z"></path></svg>