<svg xmlns="http://www.w3.org/2000/svg" enable-background="new 0 0 512 512" viewBox="0 0 512 512" id="hospital"><linearGradient id="a" x1="208" x2="208" y1="-4.289" y2="552.111" gradientUnits="userSpaceOnUse"><stop offset="0" stop-color="#2cb8dd"></stop><stop offset=".517" stop-color="#0066d4"></stop><stop offset="1" stop-color="#0d007f"></stop></linearGradient><path fill="url(#a)" d="M256,200.232h-24v-24c0-4.422-3.582-8-8-8h-32c-4.418,0-8,3.578-8,8v24h-24c-4.418,0-8,3.578-8,8v32c0,4.422,3.582,8,8,8h24v24c0,4.422,3.582,8,8,8h32c4.418,0,8-3.578,8-8v-24h24c4.418,0,8-3.578,8-8v-32C264,203.811,260.418,200.232,256,200.232z M248,232.232h-24c-4.418,0-8,3.578-8,8v24h-16v-24c0-4.422-3.582-8-8-8h-24v-16h24c4.418,0,8-3.578,8-8v-24h16v24c0,4.422,3.582,8,8,8h24V232.232z"></path><linearGradient id="b" x1="256" x2="256" y1="-4.289" y2="552.111" gradientUnits="userSpaceOnUse"><stop offset="0" stop-color="#2cb8dd"></stop><stop offset=".517" stop-color="#0066d4"></stop><stop offset="1" stop-color="#0d007f"></stop></linearGradient><path fill="url(#b)" d="M504,312.232H400v-160h8c4.418,0,8-3.578,8-8v-40c0-4.422-3.582-8-8-8h-64v-16h16c4.418,0,8-3.578,8-8v-64c0-4.422-3.582-8-8-8H56c-4.418,0-8,3.578-8,8v64c0,4.422,3.582,8,8,8h16v16H8c-4.418,0-8,3.578-8,8v40c0,4.422,3.582,8,8,8h8v352c0,4.422,3.582,8,8,8h464c4.418,0,8-3.578,8-8v-136h8c4.418,0,8-3.578,8-8v-40C512,315.811,508.418,312.232,504,312.232z M328,96.232h-16v-16h16V96.232z M296,80.232v16H120v-16H296z M64,16.232h288v48H64V16.232z M88,80.232h16v16H88V80.232z M16,112.232h384v24H16V112.232z M296,312.232v40h-16v-40H296z M264,352.232h-40v-40h40V352.232z M208,352.232h-40v-40h40V352.232z M152,352.232h-40v-40h40V352.232z M96,352.232H64v-40h32V352.232z M48,352.232H32v-40h16V352.232z M272,432.232v64h-64v-64H272z M112,416.232v-16h176v16H112z M192,432.232v64h-64v-64H192z M288,496.232v-64h8c4.418,0,8-3.578,8-8v-32c0-4.422-3.582-8-8-8H104c-4.418,0-8,3.578-8,8v32c0,4.422,3.582,8,8,8h8v64H32v-128h272c4.418,0,8-3.578,8-8v-56c0-4.422-3.582-8-8-8H32v-144h352v344H288z M480,496.232h-80v-128h80V496.232z M496,352.232h-96v-24h96V352.232z"></path><linearGradient id="c" x1="440" x2="440" y1="-4.289" y2="552.111" gradientUnits="userSpaceOnUse"><stop offset="0" stop-color="#2cb8dd"></stop><stop offset=".517" stop-color="#0066d4"></stop><stop offset="1" stop-color="#0d007f"></stop></linearGradient><path fill="url(#c)" d="M416,464.232h48c4.418,0,8-3.578,8-8v-64c0-4.422-3.582-8-8-8h-48c-4.418,0-8,3.578-8,8v64C408,460.654,411.582,464.232,416,464.232z M424,432.232h8v16h-8V432.232z M448,448.232v-16h8v16H448z M456,416.232h-8v-16h8V416.232z M432,400.232v16h-8v-16H432z"></path><linearGradient id="d" x1="344" x2="344" y1="-4.289" y2="552.111" gradientUnits="userSpaceOnUse"><stop offset="0" stop-color="#2cb8dd"></stop><stop offset=".517" stop-color="#0066d4"></stop><stop offset="1" stop-color="#0d007f"></stop></linearGradient><path fill="url(#d)" d="M360,176.232h-32c-4.418,0-8,3.578-8,8v32c0,4.422,3.582,8,8,8h32c4.418,0,8-3.578,8-8v-32C368,179.811,364.418,176.232,360,176.232z M352,208.232h-16v-16h16V208.232z"></path><linearGradient id="e" x1="344" x2="344" y1="-4.289" y2="552.111" gradientUnits="userSpaceOnUse"><stop offset="0" stop-color="#2cb8dd"></stop><stop offset=".517" stop-color="#0066d4"></stop><stop offset="1" stop-color="#0d007f"></stop></linearGradient><path fill="url(#e)" d="M360,240.232h-32c-4.418,0-8,3.578-8,8v32c0,4.422,3.582,8,8,8h32c4.418,0,8-3.578,8-8v-32C368,243.811,364.418,240.232,360,240.232z M352,272.232h-16v-16h16V272.232z"></path><linearGradient id="f" x1="344" x2="344" y1="-4.289" y2="552.111" gradientUnits="userSpaceOnUse"><stop offset="0" stop-color="#2cb8dd"></stop><stop offset=".517" stop-color="#0066d4"></stop><stop offset="1" stop-color="#0d007f"></stop></linearGradient><path fill="url(#f)" d="M360,304.232h-32c-4.418,0-8,3.578-8,8v32c0,4.422,3.582,8,8,8h32c4.418,0,8-3.578,8-8v-32C368,307.811,364.418,304.232,360,304.232z M352,336.232h-16v-16h16V336.232z"></path><linearGradient id="g" x1="344" x2="344" y1="-4.289" y2="552.111" gradientUnits="userSpaceOnUse"><stop offset="0" stop-color="#2cb8dd"></stop><stop offset=".517" stop-color="#0066d4"></stop><stop offset="1" stop-color="#0d007f"></stop></linearGradient><path fill="url(#g)" d="M360,368.232h-32c-4.418,0-8,3.578-8,8v32c0,4.422,3.582,8,8,8h32c4.418,0,8-3.578,8-8v-32C368,371.811,364.418,368.232,360,368.232z M352,400.232h-16v-16h16V400.232z"></path><linearGradient id="h" x1="344" x2="344" y1="-4.289" y2="552.111" gradientUnits="userSpaceOnUse"><stop offset="0" stop-color="#2cb8dd"></stop><stop offset=".517" stop-color="#0066d4"></stop><stop offset="1" stop-color="#0d007f"></stop></linearGradient><path fill="url(#h)" d="M360,432.232h-32c-4.418,0-8,3.578-8,8v32c0,4.422,3.582,8,8,8h32c4.418,0,8-3.578,8-8v-32C368,435.811,364.418,432.232,360,432.232z M352,464.232h-16v-16h16V464.232z"></path><linearGradient id="i" x1="208" x2="208" y1="-4.289" y2="552.111" gradientUnits="userSpaceOnUse"><stop offset="0" stop-color="#2cb8dd"></stop><stop offset=".517" stop-color="#0066d4"></stop><stop offset="1" stop-color="#0d007f"></stop></linearGradient><path fill="url(#i)" d="M328,32.232H88c-4.418,0-8,3.578-8,8s3.582,8,8,8h240c4.418,0,8-3.578,8-8S332.418,32.232,328,32.232z"></path></svg>